:SAMPLES-PER-SECOND 30
:FULLY-SPECIFIED
:DEGREES
713
root  -64.65 40.7383 2.18665 -166.189 -85.6187 162.725
RightUpLeg  -2.75931 -7.70594 -7.17904
RightLeg  5.54383 12.6934 -0.775879
RightFoot  -0.065118 -0.544483 5.50637
RightToes  -1.33073e-015 0 -3.6325e-017
Spine  6.6503 -0.78692 0.112327
Spine1  13.159 -0.211026 -2.28674
HEad  -26.7214 -16.5243 2.01555
LeftShoulder1  1.03123 0.266988 -25.6349
LeftArm  -20.8888 -17.9815 -38.4144
LeftForeArm  -5.47982 -21.0542 -4.63949
LeftHand  -0.00808134 6.79204 2.03036
RightShoulder  0.172022 -2.93115 25.2005
RightArm  6.80521 10.0633 46.2467
RightForeArm  -21.8136 11.1535 6.03154
RightHand  -0.533037 5.95925 -5.74472
LeftUpLeg  -4.18008 5.19735 -0.734077
LeftLeg  5.98059 -10.6407 -1.7934
LeftFoot  2.00857 -0.480962 4.00708
LeftToes  -1.03319e-009 7.52634e-011 -3.26162e-012
714
root  -64.5029 40.6809 2.3268 -168.977 -84.7015 165.337
RightUpLeg  -3.5305 -6.82035 -7.22412
RightLeg  6.58612 12.7812 -0.687043
RightFoot  -0.5238 -0.555879 5.82331
RightToes  -1.33073e-015 0 -3.6325e-017
Spine  7.21999 -0.610451 -0.872852
Spine1  12.4767 -0.326492 -1.53278
HEad  -26.6423 -15.8518 1.52792
LeftShoulder1  1.02859 0.360903 -26.5979
LeftArm  -14.4706 -14.4295 -38.7346
LeftForeArm  -6.99823 -13.5428 -3.90668
LeftHand  0.0225727 8.07316 2.93932
RightShoulder  0.127987 -3.0769 25.768
RightArm  5.53216 5.32839 46.8552
RightForeArm  -16.8064 4.60885 5.56735
RightHand  -0.42808 4.53056 -5.33841
LeftUpLeg  -4.53446 5.61465 -0.693243
LeftLeg  6.75109 -10.1265 -2.26974
LeftFoot  1.78827 -0.567256 4.8306
LeftToes  -1.03319e-009 7.52634e-011 -3.26162e-012
715
root  -64.3378 40.6256 2.43289 -170.761 -83.9503 167.328
RightUpLeg  -4.66424 -6.06027 -7.31298
RightLeg  7.77394 11.5574 -0.348835
RightFoot  -1.46078 -0.531329 6.02742
RightToes  -1.33073e-015 0 -3.6325e-017
Spine  7.25073 -0.615423 -2.05036
Spine1  12.0782 -0.677211 -0.604632
HEad  -26.8258 -14.8515 1.42446
LeftShoulder1  0.927012 0.771794 -27.785
LeftArm  -10.2977 -11.4015 -38.3694
LeftForeArm  -2.88703 -5.25819 -5.41244
LeftHand  0.00954715 9.92577 1.51843
RightShoulder  0.057566 -3.29969 26.6211
RightArm  4.94275 1.36736 47.1379
RightForeArm  -14.0621 -0.848792 4.97317
RightHand  -0.53397 3.52069 -7.17419
LeftUpLeg  -5.19724 5.85197 -0.645632
LeftLeg  7.19935 -9.52877 -2.55233
LeftFoot  1.70738 -0.573021 4.91709
LeftToes  -1.03319e-009 7.52634e-011 -3.26162e-012
716
root  -64.1669 40.5691 2.51709 -172.367 -83.6071 168.64
RightUpLeg  -4.87649 -6.84296 -7.765
RightLeg  9.16542 7.44264 0.181935
RightFoot  -3.36451 -0.511105 7.04626
RightToes  -1.33073e-015 0 -3.6325e-017
Spine  7.39886 -0.839818 -2.65376
Spine1  12.2858 -0.984785 -0.611917
HEad  -27.0519 -14.0584 1.42574
LeftShoulder1  0.890825 0.916903 -28.3345
LeftArm  -8.12321 -7.17 -39.3545
LeftForeArm  3.526 0.669534 -6.11838
LeftHand  0.0103487 9.39244 1.73158
RightShoulder  -0.0581856 -3.6498 27.5361
RightArm  2.6706 -3.55601 47.2098
RightForeArm  -12.2865 -3.15165 3.75591
RightHand  -0.59466 4.2952 -7.396
LeftUpLeg  -5.50475 6.15643 -0.591192
LeftLeg  7.95911 -9.27774 -2.79527
LeftFoot  1.61954 -0.62639 5.42408
LeftToes  -1.03319e-009 7.52634e-011 -3.26162e-012
717
root  -63.9946 40.5217 2.58196 -175.417 -83.4792 171.287
RightUpLeg  -4.83142 -8.99774 -8.0631
RightLeg  11.9567 2.89548 0.499667
RightFoot  -5.23749 -0.478619 8.23419
RightToes  -1.33073e-015 0 -3.6325e-017
Spine  7.58833 -1.10235 -3.18872
Spine1  12.4329 -1.53115 0.00183537
HEad  -27.3077 -13.0527 0.922073
LeftShoulder1  0.76579 1.37397 -29.8781
LeftArm  -6.6536 -2.26314 -39.7656
LeftForeArm  9.97405 3.46209 -6.79546
LeftHand  -0.0305814 10.0154 0.551542
RightShoulder  -0.0961001 -3.7621 27.4546
RightArm  1.39096 -9.52126 47.1333
RightForeArm  -13.9929 -2.11619 3.17741
RightHand  -0.573116 4.12428 -7.25927
LeftUpLeg  -5.75184 6.52503 -0.265817
LeftLeg  8.83871 -9.47787 -3.05695
LeftFoot  1.4432 -0.624122 5.48766
LeftToes  -1.03319e-009 7.52634e-011 -3.26162e-012
718
root  -63.8138 40.4813 2.63334 -176.568 -82.7543 172.091
RightUpLeg  -5.40371 -8.88632 -8.24405
RightLeg  17.1662 1.57835 0.362921
RightFoot  -6.136 -0.374678 7.32693
RightToes  -1.33073e-015 0 -3.6325e-017
Spine  7.77298 -1.26898 -4.24007
Spine1  12.2445 -2.01802 0.678138
HEad  -26.9032 -11.8432 0.538739
LeftShoulder1  0.516227 2.11042 -30.9589
LeftArm  -6.00699 5.20168 -40.5374
LeftForeArm  12.9139 1.85555 -7.16422
LeftHand  -0.0284115 9.66846 0.741217
RightShoulder  -0.13168 -3.86694 27.4531
RightArm  1.30331 -14.6058 46.5061
RightForeArm  -16.2201 -0.103541 3.19976
RightHand  -0.608227 3.89822 -7.83617
LeftUpLeg  -5.84083 6.72017 -0.162306
LeftLeg  9.30904 -9.01318 -3.15113
LeftFoot  1.31095 -0.580722 5.16355
LeftToes  -1.03319e-009 7.52634e-011 -3.26162e-012
719
root  -63.5747 40.3983 2.64934 -174.28 -81.7249 169.495
RightUpLeg  -6.16232 -6.01739 -8.8935
RightLeg  23.5981 1.52006 0.521819
RightFoot  -7.30013 -0.306239 7.25936
RightToes  -1.33073e-015 0 -3.6325e-017
Spine  7.46262 -1.19291 -4.51076
Spine1  12.636 -1.77024 -0.184683
HEad  -26.6087 -11.4587 0.324785
LeftShoulder1  0.340959 2.60677 -31.8627
LeftArm  -6.04966 12.4833 -41.34
LeftForeArm  13.8581 -1.37077 -7.29947
LeftHand  0.0369203 8.585 2.76254
RightShoulder  -0.295337 -4.34536 27.8183
RightArm  1.73102 -18.1386 45.6791
RightForeArm  -14.7871 1.90263 3.26993
RightHand  -0.424729 3.79787 -5.63805
LeftUpLeg  -5.99611 6.53668 -0.59876
LeftLeg  9.54883 -7.88636 -2.90197
LeftFoot  1.40296 -0.55759 4.9138
LeftToes  -1.03319e-009 7.52634e-011 -3.26162e-012
720
root  -63.2902 40.3286 2.62732 -173.995 -81.1696 168.886
RightUpLeg  -6.34549 -3.57261 -9.22329
RightLeg  29.6988 1.60339 0.751224
RightFoot  -7.70355 -0.274133 6.9723
RightToes  -1.33073e-015 0 -3.6325e-017
Spine  6.97957 -1.2126 -4.30929
Spine1  13.1327 -1.59959 -1.01781
HEad  -26.1515 -11.2415 0.0731076
LeftShoulder1  0.227965 2.9045 -31.9269
LeftArm  -6.92722 19.1978 -42.8487
LeftForeArm  12.9826 -4.7905 -7.05365
LeftHand  -0.00545146 8.70407 1.70091
RightShoulder  -0.379393 -4.58256 28.0832
RightArm  2.9533 -20.0831 45.0153
RightForeArm  -14.5068 3.03198 3.70118
RightHand  -0.465022 3.58477 -6.252
LeftUpLeg  -6.34996 6.72053 -0.525929
LeftLeg  10.1009 -7.51588 -3.11203
LeftFoot  1.43984 -0.5304 4.65449
LeftToes  -1.03319e-009 7.52634e-011 -3.26162e-012
721
root  -62.9743 40.2527 2.5562 -173.301 -81.0844 167.806
RightUpLeg  -5.64283 -1.872 -9.53657
RightLeg  34.572 1.28029 0.706052
RightFoot  -7.92003 -0.248911 6.55485
RightToes  -1.33073e-015 0 -3.6325e-017
Spine  6.55764 -0.976754 -3.7563
Spine1  13.3705 -1.14604 -1.83129
HEad  -25.4853 -11.8863 0.0268235
LeftShoulder1  0.219074 2.92923 -32.0097
LeftArm  -6.4421 22.6553 -43.577
LeftForeArm  12.2379 -5.37099 -7.36442
LeftHand  -0.0899259 9.31065 -1.04991
RightShoulder  -0.522629 -4.97796 28.6281
RightArm  3.99967 -21.2671 44.0807
RightForeArm  -14.6189 3.87769 4.03155
RightHand  -0.541877 4.39553 -6.714
LeftUpLeg  -6.69337 6.90575 -0.424887
LeftLeg  10.6306 -7.6568 -3.37014
LeftFoot  1.58416 -0.501357 4.34216
LeftToes  -1.03319e-009 7.52634e-011 -3.26162e-012
722
root  -62.6346 40.2023 2.46842 -171.091 -80.9224 165.012
RightUpLeg  -4.23173 -0.755047 -10.1776
RightLeg  38.0225 1.4732 0.974741
RightFoot  -7.68671 -0.231532 5.64246
RightToes  -1.33073e-015 0 -3.6325e-017
Spine  6.16128 -0.601288 -3.60745
Spine1  13.7189 -0.722862 -1.97485
HEad  -24.9911 -12.7099 -0.131185
LeftShoulder1  0.26401 2.81553 -32.2639
LeftArm  -6.25928 24.4137 -44.1364
LeftForeArm  13.6678 -4.51751 -7.52307
LeftHand  -0.033895 8.37592 0.524148
RightShoulder  -0.555163 -5.06875 28.6652
RightArm  4.35774 -21.056 43.7369
RightForeArm  -13.7593 3.86016 4.09597
RightHand  -0.501933 4.66677 -6.07545
LeftUpLeg  -6.39238 6.65038 -0.702035
LeftLeg  10.1356 -7.38665 -3.17125
LeftFoot  2.17392 -0.467599 3.83211
LeftToes  -1.03319e-009 7.52634e-011 -3.26162e-012
723
root  -62.2189 40.1058 2.3248 -168.009 -81.0025 161.603
RightUpLeg  -2.57259 0.146455 -10.6007
RightLeg  39.8848 2.2288 1.72688
RightFoot  -8.29361 -0.236823 6.75069
RightToes  -1.33073e-015 0 -3.6325e-017
Spine  5.69256 -0.419835 -3.85039
Spine1  13.85 -0.621602 -1.87354
HEad  -24.2206 -13.1558 -0.730244
LeftShoulder1  0.23265 2.90228 -32.5587
LeftArm  -6.7832 24.6965 -44.2727
LeftForeArm  16.1463 -3.65159 -7.19281
LeftHand  -0.0974186 9.03754 -1.54244
RightShoulder  -0.459862 -4.81531 28.1605
RightArm  4.51856 -19.8078 44.1991
RightForeArm  -12.7605 3.39648 4.18027
RightHand  -0.451871 3.38106 -6.22584
LeftUpLeg  -6.89867 6.59867 -0.890384
LeftLeg  10.4099 -7.46555 -3.36003
LeftFoot  2.78469 -0.468671 3.64482
LeftToes  -1.03319e-009 7.52634e-011 -3.26162e-012
724
root  -61.741 40.0166 2.13181 -164.808 -81.235 158.792
RightUpLeg  -1.33303 0.944072 -10.5894
RightLeg  40.2088 3.92213 3.26982
RightFoot  -8.07636 -0.258447 7.09356
RightToes  -1.33073e-015 0 -3.6325e-017
Spine  4.50692 -0.219206 -4.36917
Spine1  14.0404 -0.636657 -1.07785
HEad  -23.611 -13.4768 -1.37583
LeftShoulder1  0.238993 2.89231 -32.9816
LeftArm  -6.76404 23.4838 -43.795
LeftForeArm  18.0376 -2.86634 -7.09435
LeftHand  -0.0897876 7.97093 -1.95706
RightShoulder  -0.446809 -4.78858 27.8599
RightArm  4.92868 -17.1367 44.3903
RightForeArm  -12.4168 3.05578 4.40015
RightHand  -0.483093 3.01818 -6.89119
LeftUpLeg  -8.12247 6.37103 -0.978082
LeftLeg  10.3316 -7.68437 -3.42661
LeftFoot  3.61957 -0.443824 3.21462
LeftToes  -1.03319e-009 7.52634e-011 -3.26162e-012
725
root  -61.1351 39.8967 1.91167 -162.661 -81.4566 156.524
RightUpLeg  0.631919 2.01778 -10.1761
RightLeg  39.0496 5.63762 4.62024
RightFoot  -8.43499 -0.27271 8.51325
RightToes  -1.33073e-015 0 -3.6325e-017
Spine  4.42471 -0.0758077 -4.30563
Spine1  13.8345 -0.566797 -0.842348
HEad  -23.6116 -13.3121 -1.857
LeftShoulder1  0.226811 2.92582 -33.1262
LeftArm  -5.78534 20.9983 -42.9333
LeftForeArm  18.0873 -2.69872 -7.54962
LeftHand  -0.114082 8.6259 -2.0971
RightShoulder  -0.437291 -4.77882 27.3605
RightArm  5.16863 -13.4369 45.112
RightForeArm  -11.5237 2.89031 4.59309
RightHand  -0.479826 3.49289 -6.52362
LeftUpLeg  -8.95471 6.27095 -0.853782
LeftLeg  10.218 -8.03609 -3.45327
LeftFoot  4.43078 -0.347414 2.31267
LeftToes  -1.03319e-009 7.52634e-011 -3.26162e-012
726
root  -60.4471 39.7538 1.66029 -159.899 -81.315 153.643
RightUpLeg  2.69474 2.84928 -9.90587
RightLeg  36.414 6.36847 4.7824
RightFoot  -10.6966 -0.124575 11.5106
RightToes  -1.33073e-015 0 -3.6325e-017
Spine  4.48776 0.0509821 -3.69796
Spine1  13.3233 -0.139544 -1.74484
HEad  -23.6481 -13.5742 -1.78272
LeftShoulder1  0.34359 2.61407 -32.5576
LeftArm  -5.27561 18.1814 -42.1944
LeftForeArm  18.4402 -3.37115 -7.79839
LeftHand  -0.196183 9.77115 -3.69486
RightShoulder  -0.373608 -4.59403 27.2361
RightArm  5.20217 -9.34838 45.9703
RightForeArm  -10.4878 3.14012 4.71146
RightHand  -0.458289 3.9879 -5.93454
LeftUpLeg  -9.84944 6.18414 -0.812591
LeftLeg  9.91789 -7.887 -3.45732
LeftFoot  5.49937 -0.255265 1.50109
LeftToes  -1.03319e-009 7.52634e-011 -3.26162e-012
727
root  -59.7358 39.6436 1.36391 -156.918 -81.3754 150.52
RightUpLeg  5.10176 3.07749 -9.36446
RightLeg  31.8722 5.90877 3.72741
RightFoot  -14.8558 0.285504 13.0436
RightToes  -1.33073e-015 0 -3.6325e-017
Spine  3.99994 0.00934576 -3.0296
Spine1  13.6539 0.209526 -2.61987
HEad  -24.1688 -13.6216 -1.56935
LeftShoulder1  0.36475 2.53621 -31.6203
LeftArm  -4.99318 14.221 -41.7796
LeftForeArm  18.1011 -3.89185 -8.01339
LeftHand  -0.111207 9.48071 -1.45418
RightShoulder  -0.341904 -4.49373 27.3568
RightArm  5.68342 -4.55559 46.9995
RightForeArm  -9.82904 4.10963 5.04477
RightHand  -0.451356 3.58744 -6.08511
LeftUpLeg  -10.3911 5.91163 -0.731184
LeftLeg  8.85993 -8.10889 -3.278
LeftFoot  7.17479 -0.149603 0.647163
LeftToes  -1.03319e-009 7.52634e-011 -3.26162e-012
